<svg width="9" height="13" viewBox="0 0 9 13" fill="none" xmlns="http://www.w3.org/2000/svg">
<path d="M5.75543 6.71875L1.05861 10.8621L1.05854 10.862L1.05303 10.8672C0.652293 11.2428 0.643824 11.8427 1.05861 12.2086C1.45453 12.5579 2.07803 12.5514 2.48503 12.2135L2.4851 12.2136L2.49072 12.2086L7.94139 7.40024L7.94146 7.40032L7.94697 7.39516C8.34763 7.01962 8.35617 6.41988 7.94163 6.05395C7.94155 6.05387 7.94147 6.0538 7.94138 6.05373L2.49104 1.22916L2.49112 1.22906L2.48503 1.22401C2.07803 0.886089 1.45453 0.879615 1.05861 1.22888C0.647129 1.59188 0.647128 2.21239 1.05861 2.57539L5.75543 6.71875Z" fill="#86FF4E" stroke="#86FF4E" stroke-width="0.5"/>
</svg>