<?xml version="1.0" encoding="utf-8"?>
<!-- Generator: Adobe Illustrator 25.3.1, SVG Export Plug-In . SVG Version: 6.00 Build 0)  -->
<svg version="1.1" id="Layer_1" xmlns="http://www.w3.org/2000/svg" xmlns:xlink="http://www.w3.org/1999/xlink" x="0px" y="0px"
	 viewBox="0 0 39 44" style="enable-background:new 0 0 39 44;" xml:space="preserve">
<style type="text/css">
	.st0{fill:none;stroke:#87FC50;stroke-width:2;stroke-linecap:round;stroke-miterlimit:10;}
</style>
<g>
	<path class="st0" d="M33.1,41.3c0,0,0-3.7,0-6.3s-2.2-4.7-3.8-5.9c-1.5-1.2-10.1-6.8-10.1-6.8s-8.5,5.6-10.1,6.8
		c-1.6,1.2-3.6,3.4-3.6,5.9s0,6.2,0,6.2"/>
	<path class="st0" d="M33.1,1.5c0,0,0,5.1,0,7.6c0,2.5-2.2,4.7-3.8,5.9c-1.5,1.2-10.1,6.8-10.1,6.8S10.7,16.2,9.1,15
		c-1.6-1.2-3.8-3.3-3.8-5.9c0-2.6,0-7.8,0-7.8"/>
	<path class="st0" d="M1,1h36.6"/>
	<path class="st0" d="M1,42.9h36.6"/>
	<path class="st0" d="M17,10.6h15"/>
	<path class="st0" d="M6.8,10.6h6.3"/>
	<path class="st0" d="M17,35.7h15"/>
	<path class="st0" d="M6.8,35.7h6.3"/>
</g>
</svg>
