<?xml version="1.0" encoding="utf-8"?>
<!-- Generator: Adobe Illustrator 25.3.1, SVG Export Plug-In . SVG Version: 6.00 Build 0)  -->
<svg version="1.1" id="Layer_1" xmlns="http://www.w3.org/2000/svg" xmlns:xlink="http://www.w3.org/1999/xlink" x="0px" y="0px"
	 viewBox="0 0 40 40" style="enable-background:new 0 0 40 40;" xml:space="preserve">
<style type="text/css">
	.st0{fill:#87FC50;}
</style>
<desc>Created with Sketch.</desc>
<g id="Shop-_x28_ready_x29_">
	<g id="shop_home" transform="translate(-488.000000, -912.000000)">
		<g id="calendar" transform="translate(488.000000, 912.000000)">
			<g id="noun_Calendar_684828">
				<path id="Shape" class="st0" d="M34.4,3.3h-3.3V0h-2.2v3.3H11.1V0H8.9v3.3H5.6C2.5,3.3,0,5.8,0,8.9v25.6c0,3,2.5,5.5,5.6,5.5
					h28.9c3.1,0,5.6-2.5,5.6-5.6v-20v-2.2V8.9C40,5.8,37.5,3.3,34.4,3.3z M37.8,34.4c0,1.8-1.5,3.3-3.3,3.3H5.6
					c-1.8,0-3.3-1.5-3.3-3.3v-20h35.6L37.8,34.4L37.8,34.4z M37.8,12.2H2.2V8.9c0-1.8,1.5-3.3,3.3-3.3h3.3v2.2H11V5.6h17.8v2.2H31
					V5.6h3.3c1.8,0,3.3,1.5,3.3,3.3v3.3H37.8z"/>
			</g>
			<path id="Path" class="st0" d="M28.7,19.3c-0.5-0.5-1.2-0.5-1.7,0l-10,9.9l-4-4c-0.5-0.5-1.2-0.5-1.7,0s-0.5,1.2,0,1.6l4.8,4.8
				c0.2,0.2,0.5,0.3,0.8,0.3s0.6-0.1,0.8-0.3l11-10.6C29.1,20.5,29.1,19.8,28.7,19.3z"/>
		</g>
	</g>
</g>
</svg>
